<?plantuml 1.2026.1?><svg xmlns="http://www.w3.org/2000/svg" xmlns:xlink="http://www.w3.org/1999/xlink" contentStyleType="text/css" data-diagram-type="STATE" preserveAspectRatio="xMidYMid meet" version="1.1" viewBox="0 0 19037 10787" zoomAndPan="magnify" width="2400" height="1360"><title>Xuanji &#19977;&#38454;&#27573;&#28436;&#36827;&#36335;&#32447;&#65288;&#23466;&#27861; v1.2.0.1&#65289;</title><defs/><g><g class="title" data-source-line="23"><text fill="#000000" font-family="'Noto Sans CJK SC'" font-size="200" font-weight="bold" lengthAdjust="spacing" textLength="3694.2074" x="7563.7249" y="457.0005">Xuanji &#19977;&#38454;&#27573;&#28436;&#36827;&#36335;&#32447;&#65288;&#23466;&#27861; v1.2.0.1&#65289;</text></g><path d="M4100,1839.6006 L16342.3073,1839.6006 A125,125 0 0 1 16467.3073,1964.6006 L16467.3073,2454.2012 L3975,2454.2012 L3975,1964.6006 A125,125 0 0 1 4100,1839.6006" fill="#F1F1F1"/><rect fill="none" height="1829.2012" rx="125" ry="125" style="stroke:#181818;stroke-width:6.25;" width="12492.3073" x="3975" y="1839.6006"/><line style="stroke:#181818;stroke-width:6.25;" x1="3975" x2="16467.3073" y1="2454.2012" y2="2454.2012"/><text fill="#000000" font-family="'Noto Sans CJK SC'" font-size="200" lengthAdjust="spacing" textLength="2285.4048" x="9078.4513" y="2234.1011">&#38454;&#27573; 1 &#8212; Absorb&#65288;&#24403;&#21069;&#65289;</text><g><rect fill="#F1F1F1" height="939.6006" rx="125" ry="125" style="stroke:#181818;stroke-width:6.25;" width="3650.6065" x="4125" y="2604.2012"/><line style="stroke:#181818;stroke-width:6.25;" x1="4125" x2="7775.6065" y1="3218.8018" y2="3218.8018"/><text fill="#000000" font-family="'Noto Sans CJK SC'" font-size="200" lengthAdjust="spacing" textLength="3200.6065" x="4350" y="2998.7016">&#20027;&#32447;&#20135;&#20986;&#65306;&#25991;&#26723; + &#22806;&#37096;&#21442;&#32771;&#36164;&#26009;&#25972;&#29702;</text></g><g><rect fill="#F1F1F1" height="939.6006" rx="125" ry="125" style="stroke:#181818;stroke-width:6.25;" width="3960.8063" x="8006.25" y="2604.2012"/><line style="stroke:#181818;stroke-width:6.25;" x1="8006.25" x2="11967.0563" y1="3218.8018" y2="3218.8018"/><text fill="#000000" font-family="'Noto Sans CJK SC'" font-size="200" lengthAdjust="spacing" textLength="3510.8063" x="8231.25" y="2998.7016">&#25552;&#26696;&#65306;ADR(Proposed) / Feature(Draft)</text></g><g><rect fill="#F1F1F1" height="939.6006" rx="125" ry="125" style="stroke:#181818;stroke-width:6.25;" width="4154.8073" x="12200" y="2604.2012"/><line style="stroke:#181818;stroke-width:6.25;" x1="12200" x2="16354.8073" y1="3218.8018" y2="3218.8018"/><text fill="#000000" font-family="'Noto Sans CJK SC'" font-size="200" lengthAdjust="spacing" textLength="3704.8073" x="12425" y="2998.7016">&#25506;&#32034;&#24615;&#35797;&#28857;&#65306;cmd/e2bgw&#12289;wasm &#27801;&#31665;&#31867;</text></g><path d="M6400,5214.6006 L14031.455,5214.6006 A125,125 0 0 1 14156.455,5339.6006 L14156.455,5829.2012 L6275,5829.2012 L6275,5339.6006 A125,125 0 0 1 6400,5214.6006" fill="#F1F1F1"/><rect fill="none" height="2118.8018" rx="125" ry="125" style="stroke:#181818;stroke-width:6.25;" width="7881.455" x="6275" y="5214.6006"/><line style="stroke:#181818;stroke-width:6.25;" x1="6275" x2="14156.455" y1="5829.2012" y2="5829.2012"/><text fill="#000000" font-family="'Noto Sans CJK SC'" font-size="200" lengthAdjust="spacing" textLength="1260.4029" x="9585.5261" y="5609.1011">&#38454;&#27573; 2 &#8212; Fuse</text><g><rect fill="#F1F1F1" height="939.6006" rx="125" ry="125" style="stroke:#181818;stroke-width:6.25;" width="4357.0084" x="6425" y="6122.9512"/><line style="stroke:#181818;stroke-width:6.25;" x1="6425" x2="10782.0084" y1="6737.5518" y2="6737.5518"/><text fill="#000000" font-family="'Noto Sans CJK SC'" font-size="200" lengthAdjust="spacing" textLength="3907.0084" x="6650" y="6517.4516">E2B &#21327;&#35758;&#38754; + Wasm &#27801;&#31665;&#65306;&#35797;&#28857; &#8594; &#38598;&#25104;&#33021;&#21147;</text></g><g><rect fill="#F1F1F1" height="1229.2012" rx="125" ry="125" style="stroke:#181818;stroke-width:6.25;" width="3025.205" x="11018.75" y="5979.2012"/><line style="stroke:#181818;stroke-width:6.25;" x1="11018.75" x2="14043.955" y1="6883.4023" y2="6883.4023"/><text fill="#000000" font-family="'Noto Sans CJK SC'" font-size="200" lengthAdjust="spacing" textLength="2390.2046" x="11243.75" y="6373.7016">&#20801;&#35768;&#37325;&#20889; upstream &#23454;&#29616;&#65307;</text><text fill="#000000" font-family="'Noto Sans CJK SC'" font-size="200" lengthAdjust="spacing" textLength="2575.205" x="11243.75" y="6663.3022">&#25913;&#21160;&#25991;&#20214;&#24378;&#21046;&#30331;&#35760; xuanji.md</text></g><path d="M6075,8889.6006 L14357.1056,8889.6006 A125,125 0 0 1 14482.1056,9014.6006 L14482.1056,9504.2012 L5950,9504.2012 L5950,9014.6006 A125,125 0 0 1 6075,8889.6006" fill="#F1F1F1"/><rect fill="none" height="1829.2012" rx="125" ry="125" style="stroke:#181818;stroke-width:6.25;" width="8532.1056" x="5950" y="8889.6006"/><line style="stroke:#181818;stroke-width:6.25;" x1="5950" x2="14482.1056" y1="9504.2012" y2="9504.2012"/><text fill="#000000" font-family="'Noto Sans CJK SC'" font-size="200" lengthAdjust="spacing" textLength="2830.4056" x="8800.85" y="9284.1011">&#38454;&#27573; 3 &#8212; Independent Delivery</text><g><rect fill="#F1F1F1" height="939.6006" rx="125" ry="125" style="stroke:#181818;stroke-width:6.25;" width="4680.8079" x="6100" y="9654.2012"/><line style="stroke:#181818;stroke-width:6.25;" x1="6100" x2="10780.8079" y1="10268.8018" y2="10268.8018"/><text fill="#000000" font-family="'Noto Sans CJK SC'" font-size="200" lengthAdjust="spacing" textLength="4230.8079" x="6325" y="10048.7016">fork point&#65306;&#22768;&#26126;&#20572;&#27490;&#36319;&#36394;&#30340; upstream commit</text></g><g><rect fill="#F1F1F1" height="939.6006" rx="125" ry="125" style="stroke:#181818;stroke-width:6.25;" width="3369.6056" x="11000" y="9654.2012"/><line style="stroke:#181818;stroke-width:6.25;" x1="11000" x2="14369.6056" y1="10268.8018" y2="10268.8018"/><text fill="#000000" font-family="'Noto Sans CJK SC'" font-size="200" lengthAdjust="spacing" textLength="2919.6056" x="11225" y="10048.7016">main &#20923;&#32467;&#20026;&#21382;&#21490;&#21442;&#32771;&#65292;&#29420;&#31435;&#28436;&#36827;</text></g><ellipse cx="10218.75" cy="952.1006" fill="#222222" rx="125" ry="125" style="stroke:#222222;stroke-width:12.5;"/><g class="entity" data-qualified-name="GMN2" data-source-line="47" id="ent0003"><path d="M14931.25,9327.1006 L14931.25,9752.1006 L14488.0375,9802.1006 L14931.25,9852.1006 L14931.25,10270.9023 A125,125 0 0 0 15056.25,10395.9023 L18784.1572,10395.9023 A125,125 0 0 0 18909.1572,10270.9023 L18909.1572,9327.1006 L18784.1572,9202.1006 L15056.25,9202.1006 A125,125 0 0 0 14931.25,9327.1006" fill="#FAFAFA" style="stroke:#181818;stroke-width:6.25;"/><path d="M18784.1572,9202.1006 L18784.1572,9264.6006 A62.5,62.5 0 0 0 18846.6572,9327.1006 L18909.1572,9327.1006 L18784.1572,9202.1006" fill="#FAFAFA" style="stroke:#181818;stroke-width:6.25;"/><text fill="#000000" font-family="'Noto Sans CJK SC'" font-size="200" lengthAdjust="spacing" textLength="2761.4054" x="15106.25" y="9596.6011">fork point &#22768;&#26126;&#26159;&#23466;&#27861;&#20462;&#27491;&#26696;&#65306;</text><text fill="#000000" font-family="'Noto Sans CJK SC'" font-size="200" lengthAdjust="spacing" textLength="3515.4072" x="15106.25" y="9886.2016">&#35760;&#24405; upstream commit + &#26085;&#26399; + &#29702;&#30001;&#65307;</text><text fill="#000000" font-family="'Noto Sans CJK SC'" font-size="200" lengthAdjust="spacing" textLength="3422.8069" x="15106.25" y="10175.8022">&#26410;&#22768;&#26126;&#21069; Principle I &#36319;&#36394;&#20041;&#21153;&#25345;&#32493;&#26377;&#25928;</text></g><g class="entity" data-qualified-name="GMN5" data-source-line="53" id="ent0006"><path d="M75,2277.1006 L75,3220.9023 A125,125 0 0 0 200,3345.9023 L3412.5057,3345.9023 A125,125 0 0 0 3537.5057,3220.9023 L3537.5057,2802.1006 L3973.4325,2752.1006 L3537.5057,2702.1006 L3537.5057,2277.1006 L3412.5057,2152.1006 L200,2152.1006 A125,125 0 0 0 75,2277.1006" fill="#FAFAFA" style="stroke:#181818;stroke-width:6.25;"/><path d="M3412.5057,2152.1006 L3412.5057,2214.6006 A62.5,62.5 0 0 0 3475.0057,2277.1006 L3537.5057,2277.1006 L3412.5057,2152.1006" fill="#FAFAFA" style="stroke:#181818;stroke-width:6.25;"/><text fill="#000000" font-family="'Noto Sans CJK SC'" font-size="200" lengthAdjust="spacing" textLength="1400.0027" x="250" y="2546.6011">&#20004;&#26465;&#20840;&#31243;&#32422;&#26463;&#65306;</text><text fill="#000000" font-family="'Noto Sans CJK SC'" font-size="200" lengthAdjust="spacing" textLength="2900.0057" x="250" y="2836.2016">&#27010;&#24565;&#26159;&#20020;&#26102;&#30340;&#65288;&#19981;&#24314;&#20860;&#23481; shim&#65289;</text><text fill="#000000" font-family="'Noto Sans CJK SC'" font-size="200" lengthAdjust="spacing" textLength="3000.0057" x="250" y="3125.8022">&#21151;&#33021;&#20248;&#20808;&#20110;&#25171;&#30952;&#65288;&#26426;&#26800;&#38376;&#31105;&#38500;&#22806;&#65289;</text></g><!--link *start* to Stage1--><g class="link" data-entity-1="ent0002" data-entity-2="ent0002" data-link-type="dependency" data-source-line="25" id="lnk3"><path d="M10218.75,1081.5518 C10218.75,1244.3843 10218.75,1463.7606 10218.75,1760.5393" fill="none" id="*start*-to-Stage1" style="stroke:#181818;stroke-width:25;"/><polygon fill="#181818" points="10218.75,1835.5393,10268.75,1723.0393,10218.75,1773.0393,10168.75,1723.0393,10218.75,1835.5393" style="stroke:#181818;stroke-width:25;"/></g><!--link Stage1 to Stage2--><g class="link" data-entity-1="ent0002" data-entity-2="ent0006" data-link-type="dependency" data-source-line="43" id="lnk4"><path d="M10218.75,3669.0506 C10218.75,4141.2931 10218.75,4644.6731 10218.75,5136.6668" fill="none" id="Stage1-to-Stage2" style="stroke:#181818;stroke-width:25;"/><polygon fill="#181818" points="10218.75,5211.6668,10268.75,5099.1668,10218.75,5149.1668,10168.75,5099.1668,10218.75,5211.6668" style="stroke:#181818;stroke-width:25;"/><text fill="#000000" font-family="'Noto Sans CJK SC'" font-size="200" lengthAdjust="spacing" textLength="3745.4071" x="10331.25" y="4384.1011">&#36864;&#20986;&#65306;upstream &#26680;&#24515;&#27010;&#24565;&#24050;&#34987;&#20934;&#30830;&#25991;&#26723;&#21270;</text><text fill="#000000" font-family="'Noto Sans CJK SC'" font-size="200" lengthAdjust="spacing" textLength="3000.0057" x="10703.9507" y="4673.7016">&#25913;&#21160;&#21487;&#38472;&#36848;&#12300;&#25913;&#20102;&#20160;&#20040;&#12289;&#20026;&#20160;&#20040;&#12301;</text></g><!--link Stage2 to Stage3--><g class="link" data-entity-1="ent0006" data-entity-2="ent0009" data-link-type="dependency" data-source-line="44" id="lnk5"><path d="M10218.75,7344.2831 C10218.75,7836.6893 10218.75,8340.3281 10218.75,8812.4281" fill="none" id="Stage2-to-Stage3" style="stroke:#181818;stroke-width:25;"/><polygon fill="#181818" points="10218.75,8887.4281,10268.75,8774.9281,10218.75,8824.9281,10168.75,8774.9281,10218.75,8887.4281" style="stroke:#181818;stroke-width:25;"/><text fill="#000000" font-family="'Noto Sans CJK SC'" font-size="200" lengthAdjust="spacing" textLength="2400.0046" x="10368.15" y="8059.1011">&#36864;&#20986;&#65306;&#33021;&#21147;&#24050;&#34701;&#21512;&#32780;&#38750;&#22806;&#25346;</text><text fill="#000000" font-family="'Noto Sans CJK SC'" font-size="200" lengthAdjust="spacing" textLength="2473.8047" x="10331.25" y="8348.7016">rebase &#25104;&#26412;&#21487;&#35265;&#22320;&#36229;&#36807;&#25910;&#30410;</text></g><?plantuml-src VLLjJo9N5FxEhpZPBzrjiwvWqpHDRE9gRRRTtPXgqoRTfXdWWbDWPZepwDgc2QWWA8YfeYAeArebxegizGK1mt_PdNjd-EHVw851cRYwtoRtl3pFSyvpxoW-Nf0ucGj0G1H4rwWi1WYeSf3ObEk8CigvnN5Uy8A7yolMY2m61NU_A0j41aUt9U2MUEZfnXCNvoVmkJL2F5pGhmwAWZhC_qd0_iNjmUSS4hdtN5H56EO41Vg_-nw6--zPaYNExMwI-j9orYVBulZ8AE_o2KHHm649FHPbDv5lZobZtW4-G0I55uLXTG8ftrIA6KzvmJV2oLwYmczEFoVuR9z0RsylwDLDhHoY1oiqTOPof9UNjTWGnjKVdpq5kZ1D8rFwyIipJbEJB5rgL5UDuWuDrPhHskHbBQ6LayRPPcCjTNC-bxLu4yJ2HELLFxbzV2vEKb71xK51LEyeKrGY4r6TaEw8-ucN2ExROnBdyd5UCd8tAONy4II2Ypp3eMFcnvFwNAeeVppbMpITz05UQohmSv0JVkT1AySRgwUiUC9gIqOzQvmTwfKwReKMzzb_QHYpTpcwkhliE5kRxPTFVuM73x-6OHN9sMqsHULKD9vP3tPu5rg2FgSYoivcWuj56azYtJtWb7O9_6K3Q5TfvIeYQPKzEbEvhAsnvHcsjGsV0TrPRamLSFb6QCeucMRB6PO-rXUYhJQAdUjqOAa5jXN3shw17-uFoQ8aAiJz01x18E7Ke4pk3yYSHttGBdHQ2kVp-d6UXVQCmxG-UOuTN07t8-9mUiVVXyBZd180TfJHYs_rjzLsjSlszqszZfRUmQ12EWeTLeNVE1u3JQQCOh6ndaTbFtKQ8wI93U-Y_q0Z6sMn1MFgWivcJJo7HIQDX8rYkJ6JfD4C12L5bGckc1OtzFdIPItxGc1BvtIsW0FKggUqLg6nKprJDOebUDbQSLV0tMxg_514Jql44y5D9FGj4LGO87v-ZCWJ7L4zLb4UKVQ19FA2YXheTecjpjDmZXtayKuQvNrzRRh3qIK60hngWlTO50KuNW0QhUhLHQrSeVDHcZeo5uxNMvzxex-UCztOBctnRZlesdyE-0eQeP3fdcj8zgfCwrDiTvBMJ-ZPaP5_JMUY-bRHj1TDB5-DYwOE6vcOKI-z3oNmHAj4jMf8Eu-X0P3JrNVIriQwXksnmfehQ-9i9Eb2p0Wb6kiRQ62Mc7mXoCJ9AGHmiopt1k6ClJ3DbOpJY56VOKkdUdRMPci-D23ptb4LH4yR0EVK6JAO8sQhX-Q5rEf5Th1jsXuJSSlq8drpukWrjl8lostY1zuSVGdzbiLibjjlRooUX26P5royX2_14p1tfvt7wUmMIuJrwW7BnLawPaDFj1x3DbC_yNI8sh6ZLjvXwriqKj0BStfbbwrlchpC1I1hhNpCLaxH5VWYuCDDgnKQgT7YEVue-K3pKG6WiviuHwssIYCnhJBFuelwTW7JMQx2ygN6Ia7V3JSoEpZMPluLe_y1?></g></svg>